<svg xmlns="http://www.w3.org/2000/svg" viewBox="0 0 960 600" role="img" aria-labelledby="title desc">
  <title id="title">ŕŢTťŇ;</title>
  <desc id="desc">ś˘Tť­W˙ö</desc>
  <defs>
    <linearGradient id="bg" x1="0" x2="1" y1="0" y2="1">
      <stop offset="0" stop-color="#173b2d"/>
      <stop offset="0.55" stop-color="#2e714a"/>
      <stop offset="1" stop-color="#ff7c8c"/>
    </linearGradient>
    <radialGradient id="fruit" cx="35%" cy="28%" r="74%">
      <stop offset="0" stop-color="#ffd4cc"/>
      <stop offset=".35" stop-color="#ff6478"/>
      <stop offset="1" stop-color="#9c1531"/>
    </radialGradient>
    <filter id="shadow" x="-20%" y="-20%" width="140%" height="140%">
      <feDropShadow dx="0" dy="18" stdDeviation="24" flood-color="#051811" flood-opacity=".4"/>
    </filter>
  </defs>
  <rect width="960" height="600" fill="url(#bg)"/>
  <path d="M0 407c145-86 255-80 388-34 142 50 298 55 572-89v316H0Z" fill="#0c271e" opacity=".4"/>
  <g fill="none" stroke="#c1eb9f" stroke-width="20" stroke-linecap="round" opacity=".9">
    <path d="M492 130c26 92 74 144 154 182"/>
    <path d="M482 141c-74 40-130 92-166 156"/>
  </g>
  <g filter="url(#shadow)">
    <ellipse cx="354" cy="352" rx="94" ry="108" fill="url(#fruit)"/>
    <ellipse cx="482" cy="315" rx="105" ry="118" fill="url(#fruit)"/>
    <ellipse cx="604" cy="366" rx="92" ry="105" fill="url(#fruit)"/>
  </g>
  <g fill="#ffe0d7" opacity=".52">
    <circle cx="324" cy="308" r="7"/>
    <circle cx="378" cy="359" r="6"/>
    <circle cx="457" cy="270" r="8"/>
    <circle cx="519" cy="336" r="6"/>
    <circle cx="581" cy="330" r="7"/>
    <circle cx="633" cy="395" r="5"/>
  </g>
  <path d="M548 140c74-58 150-47 202 31-92 29-164 17-202-31Z" fill="#8cd063"/>
  <path d="M423 147c-72-45-143-26-186 55 90 13 155-6 186-55Z" fill="#9bdc72"/>
  <text x="72" y="96" fill="#fff9e8" font-size="44" font-family="serif" font-weight="700">ŕŢ · Tť</text>
  <text x="74" y="142" fill="#ffe8b5" font-size="24" font-family="serif">ĺVTť	~—</text>
</svg>
